<svg id="Layer_1" data-name="Layer 1" xmlns="http://www.w3.org/2000/svg" viewBox="0 0 416.84 416.4"><defs><style>.cls-1{fill:#ebf1fb;}.cls-2{fill:#fefefe;}.cls-3{fill:#dde8fc;}.cls-4{fill:#5e93fc;}.cls-5{fill:#5392fd;}.cls-6{fill:#b1cdf9;}.cls-7{fill:#98b9ed;}.cls-8{fill:#cadaf6;}.cls-9{fill:#7699fc;}.cls-10{fill:#739de9;}.cls-11{fill:#93b4f5;}.cls-12{fill:#628de8;}.cls-13{fill:#93b8f7;}.cls-14{fill:#abc8f8;}.cls-15{fill:#a4c0fd;}.cls-16{fill:#c9ddf7;}.cls-17{fill:#9db9fe;}.cls-18{fill:#85abfb;}.cls-19{fill:#bed5f9;}.cls-20{fill:#90b4fd;}.cls-21{fill:#a0bffa;}.cls-22{fill:#7098fd;}.cls-23{fill:#85abfe;}.cls-24{fill:#c4d3fd;}.cls-25{fill:#668ddb;}.cls-26{fill:#99b6fd;}.cls-27{fill:#bfd9f9;}</style></defs><title>verification</title><path class="cls-1" d="M777.18,420.91a12.35,12.35,0,0,1-.81,3.08,11.21,11.21,0,0,1-2.18,2.17v-42l3,.77v36Z" transform="translate(-360.34 -197.59)"/><path class="cls-2" d="M777.18,393.16v0Z" transform="translate(-360.34 -197.59)"/><path class="cls-3" d="M774.19,384.14v42c0,3.38.25,6.78-.08,10.12-.29,3-1.26,5.92-1.83,8.9a22.82,22.82,0,0,0-.33,3.7c-.1,2.93.6,6-2.46,8.17-.5.35-.45,1.6-.54,2.44-.25,2.56,1,5.68-2.62,7-.21.07-.29.65-.36,1-.79,4.11-1.38,8.28-2.44,12.32-.58,2.21-2,4.2-2.95,6.3-2.24,4.8-4.45,9.62-6.7,14.42-1.23,2.61-2.43,5.24-3.77,7.79-.84,1.6-1.92,3.08-2.91,4.6-3.45,5.32-6.75,10.75-10.42,15.92a161.42,161.42,0,0,1-10.56,13.34c-3.3,3.73-7.09,7-10.61,10.59-3.84,3.87-7.46,8-11.49,11.67-2.72,2.48-6,4.35-9,6.56-1.31,1-2.4,2.26-3.74,3.2-5.64,4-11.22,8.16-17.07,11.85-2.68,1.69-6,2.35-8.9,3.7-2.08,1-4,2.36-6,3.43-4.37,2.29-8.64,4.92-13.24,6.65-6.63,2.5-13.49,4.44-20.32,6.38-3.52,1-7.73.62-10.64,2.44-5.12,3.19-11,1.26-15.72,3.12-7.68,3-15.24,1.5-22.82,1.81-10,.4-20.05.73-30-.11-8.86-.74-17.59-3.06-26.36-4.77-3.27-.63-6.51-1.41-9.72-2.27-4.12-1.12-8.25-2.23-12.27-3.62-4.48-1.56-9.13-2.94-13.18-5.29-5.34-3.1-11.35-4.8-16.48-8.15-8.76-5.71-17.13-12.05-25.93-17.71a111.53,111.53,0,0,1-24.28-21.25c-7.44-8.66-15-17.26-21.76-26.44-4.74-6.43-8.55-13.61-12.2-20.76C380.36,495,376.73,486.43,373,478c-.87-2-.93-4.35-1.64-6.44-.65-1.91-1.87-3.63-2.48-5.54a71.08,71.08,0,0,1-2.38-9.26c-1.23-7.16-2.24-14.35-3.36-21.53-.87-5.56-2.24-11.1-2.55-16.7-.44-8.08-.25-16.21-.09-24.3a86.27,86.27,0,0,1,1.17-10.35c1-6.7,1.83-13.42,3.07-20.07a155.19,155.19,0,0,1,3.92-16.47c1.14-3.76,3.19-7.24,4.62-10.93,1.27-3.27,2-6.77,3.42-10,2.81-6.37,5.81-12.67,8.94-18.89a101.08,101.08,0,0,1,6.66-11.74c9.62-14.15,19.09-28.46,32.38-39.62,5.21-4.37,10.39-8.77,15.63-13.11,3.86-3.19,7.66-6.5,11.76-9.38,3.7-2.6,8.09-4.3,11.57-7.14,2.42-2,6.14-1.26,7.86-4.62.62-1.2,3-1.57,4.55-2.22,2.93-1.21,5.89-2.31,8.81-3.52,3.42-1.43,6.71-3.31,10.25-4.32,7.42-2.11,14-7.2,22.32-6.19.59.07,1.59,0,1.76-.3,2-3.82,5.59-2.45,8.65-2.65,2.55-.17,5.19.47,7.19-2,.56-.7,2.08-.8,3.18-.89,9.85-.82,19.7-2.19,29.56-2.17,10.4,0,20.81,1.29,31.2,2.21,1.58.14,3,1.58,4.63,1.93,2.49.53,5.07.63,7.61.93,1.92.23,4.48-.94,5,2.32a1,1,0,0,0,.88.53c5-1.09,9.31,1.9,14,2.47,1.49.19,2.89,1.21,4.31,1.9.51.25.92.83,1.44,1,3.23.83,6.62,1.22,9.68,2.45,3.39,1.35,6.44,3.55,9.73,5.18a25,25,0,0,0,5.33,1.79c4.57,1.1,6.83,6.12,11.94,6.6,2.29.22,4.55,2.1,6.57,3.56,4.39,3.19,8.61,6.6,12.9,9.92,5.07,3.91,9.63,8.58,14.76,12.2,3.1,2.2,4.38,6.1,8.69,7.41,2.74.84,4.31,5.36,6.54,8.12,2,2.5,4.33,4.78,6.34,7.3,1.57,2,2.81,4.19,4.32,6.21,1,1.41,2.38,2.6,3.43,4,1.66,2.26,3.19,4.64,4.79,6.95.38.56.81,1.09,1.24,1.62a32.48,32.48,0,0,1,3.4,4.27c1.47,2.63,2.48,5.5,3.94,8.13,1.35,2.42,3.35,4.5,4.51,7,1.44,3.11,1.64,7,3.6,9.61s.64,6.73,4.26,8.33c.35.15.57.8.68,1.27.81,3.52.81,7.52,2.56,10.48,2.25,3.83,1.57,8.24,3.12,11.65C773.57,364.37,774.28,374.11,774.19,384.14Zm-42.8,42.72c0-1.75,0-3.49,0-5.24q-.15-3.24-.28-6.47.11-9.48.22-19l.09-5.24c0-2.12-.09-4.25.07-6.36.17-2.27-1-2.83-2.92-2.74-2.18-6.81-1.27-14.08-4.46-21-3.1-6.68-3.7-14.47-7.53-21.14-3.48-6-6.4-12.39-9.61-18.59-1.11-2.15-1.93-4.7-3.64-6.24a58.06,58.06,0,0,1-10-11.93c-3.78-5.9-8.93-10.71-14.3-15.22s-9.75-10.48-16.49-13.59c-3-1.39-5.56-3.77-8.43-5.51-1.45-.87-4-.87-4.58-2-1.48-3.09-3.86-4.08-6.82-5-2.57-.82-4.81-2.62-7.28-3.81a8.79,8.79,0,0,0-2.9-.33c-1-.93-2-2.31-3.19-2.71-3.13-1-6.39-1.56-9.6-2.3-3.34-.9-6.68-1.82-10-2.69-2.09-.55-4.2-1-6.3-1.53-1.47-3.37-4.55-3.94-7.63-1.42L586.74,244a16.26,16.26,0,0,0-3.56-.79q-14.91-.11-29.81,0a9.73,9.73,0,0,0-2.69.8l-10.45,1.44c-1.36,0-2.74,0-4.09-.08-2.28-.19-3.93.4-4.25,3a27.15,27.15,0,0,0-5.14.57c-4.84,1.45-9.71,2.9-14.38,4.79-5.74,2.33-12.31,2.93-16.88,7.82-.28.3-.93.24-1.39.38a35.84,35.84,0,0,1-4.52,1.43c-5.22.92-7.28,6.81-12.53,7.81-1.12.22-1.91,2.06-2.92,3.09a7.49,7.49,0,0,1-1.62,1.14,48.17,48.17,0,0,0-6,3.76c-2.16,1.83-3.85,4.21-6,6.13-.88.82-2.61.79-3.37,1.65-2.62,3-4.62,6.56-7.53,9.17a89,89,0,0,0-20.28,26.1c-1.2,2.38-3.43,4.26-4.55,6.66-3,6.51-5.72,13.16-8.48,19.78-3.46,8.29-6.54,16.71-7.48,25.74-5.06.12-2.1,4-2.84,6.1l0,5.23v5.23l-.22,2.21c-.48.62-1.35,1.23-1.36,1.86-.2,6.66-.37,13.33-.28,20,0,1.48,1.07,3,1.65,4.43l.23,7.41c0,4.26-1.26,8.81,2.88,12.08.75,3.47,1.33,7,2.29,10.39q2.23,8,4.93,15.82c1.48,4.31,3.28,8.52,4.93,12.78l7.32,11.3c1.39,2.29,2.7,4.65,4.2,6.88,3.66,5.44,7.06,11.12,11.23,16.16s8.91,9.12,13.43,13.63c2.35,2.34,4.39,5.27,7.18,6.8s5,2.92,6.84,5.59A9.82,9.82,0,0,0,477,542.2c2.61.45,4.36,1.22,5.61,3.52.33.61,1.38.85,2.14,1.19,2.84,1.26,5.75,2.39,8.54,3.75,4.48,2.18,8.73,4.89,13.36,6.65,5.89,2.25,12.25,3.32,18.07,5.72,8.61,3.56,17.62,4.22,26.68,5,1.94,1,3.85,2.68,5.82,2.77,7.55.32,15.13.12,22.69.11,2.83-.12,6.16,1,7.55-2.87l4.42-.18c4.55.19,9.17.73,12.91-2.79a2.78,2.78,0,0,1,.62-.41c8.5-3,17.66-3.44,25.77-8.39,5.86-3.57,12.88-5.35,18.89-9,1.07-.66,2.88-.21,3.81-1,4.42-3.5,8.62-7.29,13-10.88,3-2.48,6.21-4.75,9.2-7.25,1.37-1.15,2.41-2.67,3.68-3.94,4.43-4.43,9.33-8.48,13.24-13.32,4.27-5.29,8.1-11,12.42-16.26,1.56-1.91,2.34-4.46,3.61-6.64s3-4.48,4.25-6.89c1.58-3.19,2.79-6.57,4.22-9.85,1.16-2.64,2.73-5.15,3.54-7.89,1.71-5.72,3.06-11.54,4.51-17.34,1-4.1,2-8.22,3-12.33C730.82,432,732,429.81,731.39,426.86Z" transform="translate(-360.34 -197.59)"/><path class="cls-4" d="M540.23,245.46,550.68,244c1.35.46,2.7,1.31,4.06,1.33q14.52.17,29,0c1,0,2-.86,3-1.32l8.94,2.79,7.63,1.42c2.1.51,4.21,1,6.3,1.53,3.35.87,6.69,1.79,10,2.69,2.38,1.64,4.59,3.62,7.18,4.8,1.58.71,3.72.18,5.61.21a8.79,8.79,0,0,1,2.9.33c2.47,1.19,4.71,3,7.28,3.81,3,1,5.34,1.95,6.82,5,.55,1.13,3.13,1.13,4.58,2,2.87,1.74,5.41,4.12,8.43,5.51,6.74,3.11,11,9,16.49,13.59s10.52,9.32,14.3,15.22a58.06,58.06,0,0,0,10,11.93c1.71,1.54,2.53,4.09,3.64,6.24,3.21,6.2,6.13,12.55,9.61,18.59,3.83,6.67,4.43,14.46,7.53,21.14,3.19,6.9,2.28,14.17,4.46,21v9c0,1.77,0,3.54,0,5.31q.35,9.38.7,18.75-.33,3-.68,6.07,0,3,0,6c0,2.22,0,4.44,0,6.66-1,4.11-2,8.23-3,12.33-1.45,5.8-2.8,11.62-4.51,17.34-.81,2.74-2.38,5.25-3.54,7.89-1.43,3.28-2.64,6.66-4.22,9.85-1.2,2.41-2.9,4.56-4.25,6.89s-2,4.73-3.61,6.64c-4.32,5.3-8.15,11-12.42,16.26-3.91,4.84-8.81,8.89-13.24,13.32-1.27,1.27-2.31,2.79-3.68,3.94-3,2.5-6.19,4.77-9.2,7.25-4.36,3.59-8.56,7.38-13,10.88-.93.74-2.74.29-3.81,1-6,3.69-13,5.47-18.89,9-8.11,4.95-17.27,5.38-25.77,8.39a2.78,2.78,0,0,0-.62.41c-3.67.22-7.35.34-11,.76-.7.08-1.27,1.32-1.91,2l-4.42.18L580,568l-28.57,0c-9.06-.74-18.07-1.4-26.68-5-5.82-2.4-12.18-3.47-18.07-5.72-4.63-1.76-8.88-4.47-13.36-6.65-2.79-1.36-5.7-2.49-8.54-3.75-.76-.34-1.81-.58-2.14-1.19-1.25-2.3-3-3.07-5.61-3.52a9.82,9.82,0,0,1-5.71-3.94c-1.82-2.67-4.1-4.08-6.84-5.59s-4.83-4.46-7.18-6.8c-4.52-4.51-9.38-8.74-13.43-13.63-4.17-5-7.57-10.72-11.23-16.16-1.5-2.23-2.81-4.59-4.2-6.88.87-5.85-2.37-11.07-7.32-11.3-1.65-4.26-3.45-8.47-4.93-12.78q-2.7-7.85-4.93-15.82c-1-3.41-1.54-6.92-2.29-10.39,0-3.11-.13-6.22,0-9.32.11-2.24-1-2.84-2.9-2.76-.08-2.47-.15-4.94-.23-7.41l.24-1.52,2.87,1.35V390.91l0-5.29,0-6.74,0-4.51c.94-9,4-17.45,7.48-25.74,2.76-6.62,5.47-13.27,8.48-19.78,1.12-2.4,3.35-4.28,4.55-6.66a89,89,0,0,1,20.28-26.1c2.91-2.61,4.91-6.21,7.53-9.17.76-.86,2.49-.83,3.37-1.65,2.1-1.92,3.79-4.3,6-6.13a48.17,48.17,0,0,1,6-3.76,7.49,7.49,0,0,0,1.62-1.14c1-1,1.8-2.87,2.92-3.09,5.25-1,7.31-6.89,12.53-7.81a35.84,35.84,0,0,0,4.52-1.43c.46-.14,1.11-.08,1.39-.38,4.57-4.89,11.14-5.49,16.88-7.82,4.67-1.89,9.54-3.34,14.38-4.79a27.15,27.15,0,0,1,5.14-.57c1.75,0,3.5-.1,5.23.05C539.37,248.6,540.4,247.72,540.23,245.46ZM476.71,421.13l-.06.08-2.73-.75c-.16,3.36-.46,6.26-.31,9.14.05.83,1.4,1.59,2.15,2.39,3.56,2.21,7.12,4.41,10.66,6.64s7.18,4.37,10.6,6.81c2.78,2,5.29,4.34,7.94,6.51,1.27,1,2.59,2,3.89,3.05.56,1,1.84,1,2.66,1.54,4.17,2.94,8.21,6.09,12.33,9.1q8.22,6,16.5,11.87c.37.26,1,.17,1.42.36,1.72.77,3.42,1.58,5.13,2.38a4.57,4.57,0,0,0,7.54.58c2.41-1.34,5.18-2.3,7.15-4.12a135.45,135.45,0,0,0,10.56-11.25c3.94-4.59,7.63-9.4,11.47-14.08,2.8-3.39,5.66-6.74,8.52-10.07,1.64-1.91,3.46-3.67,5-5.65,2.16-2.78,3.74-6.13,6.29-8.46a117.35,117.35,0,0,0,12.85-14c6-7.59,12.6-14.68,18.89-22,1.22-1.43,2-3.29,3.24-4.65,4.92-5.18,10.08-10.13,14.92-15.38,2-2.15,3.14-5.06,5.09-7.25,2.51-2.8,2.56-5.58.49-8.32-1.15-1.54-3-2.52-4.52-3.83-4.24-3.79-10.16-5.48-13.28-10.74-.42-.7-2-.71-3.06-1.05a8.41,8.41,0,0,1-2-.71c-2.7-1.77-5.35-3.61-8-5.42-2.47-3.38-5.74-3.06-7.63.75-3.9,4.09-7.81,8.17-11.68,12.28-1.6,1.7-3.16,3.43-4.62,5.25-1.64,2-3,4.27-4.73,6.23-3.25,3.74-6.82,7.21-10,11.05-5.29,6.47-10.18,13.28-15.58,19.66-3.5,4.13-7.63,7.73-11.43,11.62-2.2,2.24-3.28,5.21-6.14,7.24-3,2.15-4.81,6-7.23,9.09-1.74,2.19-4,2.45-6.24.88-5.26-3.66-10.52-7.34-15.63-11.21-2.08-1.57-3.46-4.62-5.69-5.31-4.28-1.34-7.15-3.84-9.79-7.2-1.82-2.33-7.77-2.5-9.63-.56q-8.68,9.11-17.3,18.28c-1.12,1.2-2.76,2.5-2.92,3.89-.27,2.37-1.64,2.06-3.07,2.17Z" transform="translate(-360.34 -197.59)"/><path class="cls-5" d="M408.93,390.91v28.34l-2.87-1.35q-.13-12.37-.25-24.76c.07-.74.15-1.47.22-2.21Z" transform="translate(-360.34 -197.59)"/><path class="cls-6" d="M551.39,568,580,568l-.06,2.85c-7.56,0-15.14.21-22.69-.11C555.24,570.67,553.33,569,551.39,568Z" transform="translate(-360.34 -197.59)"/><path class="cls-7" d="M586.74,244c-1,.46-2,1.31-3,1.32q-14.5.15-29,0c-1.36,0-2.71-.87-4.06-1.33a9.73,9.73,0,0,1,2.69-.8q14.91-.08,29.81,0A16.26,16.26,0,0,1,586.74,244Z" transform="translate(-360.34 -197.59)"/><path class="cls-8" d="M405.81,393.14q.12,12.38.25,24.76l-.24,1.52c-.58-1.47-1.63-2.95-1.65-4.43-.09-6.66.08-13.33.28-20C404.46,394.37,405.33,393.76,405.81,393.14Z" transform="translate(-360.34 -197.59)"/><path class="cls-9" d="M729.17,414.89q-.34-9.37-.7-18.75l2.81.05q-.1,9.48-.22,18.95Z" transform="translate(-360.34 -197.59)"/><path class="cls-10" d="M632.43,257.47c-1.89,0-4,.5-5.61-.21-2.59-1.18-4.8-3.16-7.18-4.8,3.21.74,6.47,1.3,9.6,2.3C630.46,255.16,631.38,256.54,632.43,257.47Z" transform="translate(-360.34 -197.59)"/><path class="cls-11" d="M406.05,426.83c1.92-.08,3,.52,2.9,2.76-.15,3.1,0,6.21,0,9.32C404.79,435.64,406,431.09,406.05,426.83Z" transform="translate(-360.34 -197.59)"/><path class="cls-12" d="M421.08,477.9c4.95.23,8.19,5.45,7.32,11.3Z" transform="translate(-360.34 -197.59)"/><path class="cls-13" d="M591.87,567.82c.64-.71,1.21-2,1.91-2,3.65-.42,7.33-.54,11-.76C601,568.55,596.42,568,591.87,567.82Z" transform="translate(-360.34 -197.59)"/><path class="cls-14" d="M728.52,390.83v-9c1.92-.1,3.09.46,2.92,2.73-.16,2.11-.06,4.24-.07,6.36Z" transform="translate(-360.34 -197.59)"/><path class="cls-15" d="M540.23,245.46c.17,2.26-.86,3.14-3.11,2.94-1.73-.15-3.48,0-5.23-.05.32-2.57,2-3.16,4.25-3C537.49,245.49,538.87,245.44,540.23,245.46Z" transform="translate(-360.34 -197.59)"/><path class="cls-16" d="M579.9,570.87,580,568l7.49,0C586.06,571.92,582.73,570.75,579.9,570.87Z" transform="translate(-360.34 -197.59)"/><path class="cls-17" d="M603.31,248.24l-7.63-1.42C598.76,244.3,601.84,244.87,603.31,248.24Z" transform="translate(-360.34 -197.59)"/><path class="cls-18" d="M729.17,414.89l1.89.25q.13,3.24.28,6.48l-2.85-.66Q728.84,417.93,729.17,414.89Z" transform="translate(-360.34 -197.59)"/><path class="cls-19" d="M408.83,374.37c0,1.51,0,3,0,4.51L406,380.47C406.73,378.34,403.77,374.49,408.83,374.37Z" transform="translate(-360.34 -197.59)"/><path class="cls-20" d="M406,380.47l2.88-1.59,0,6.74-2.87.08C406,384,406,382.21,406,380.47Z" transform="translate(-360.34 -197.59)"/><path class="cls-21" d="M728.49,421l2.85.66c0,1.75,0,3.49,0,5.24l-2.85.13Q728.53,424,728.49,421Z" transform="translate(-360.34 -197.59)"/><path class="cls-22" d="M406,385.7l2.87-.08,0,5.29-2.9,0Z" transform="translate(-360.34 -197.59)"/><path class="cls-23" d="M728.52,390.83l2.85.12-.09,5.24-2.81-.05C728.49,394.37,728.5,392.6,728.52,390.83Z" transform="translate(-360.34 -197.59)"/><path class="cls-24" d="M728.54,427l2.85-.13c.65,2.95-.57,5.09-2.87,6.79Q728.54,430.32,728.54,427Z" transform="translate(-360.34 -197.59)"/><path class="cls-25" d="M476.65,421.21c-.3,3.6-.59,7.19-.89,10.78-.75-.8-2.1-1.56-2.15-2.39-.15-2.88.15-5.78.31-9.14Z" transform="translate(-360.34 -197.59)"/><path class="cls-26" d="M546.89,480.25c2.6-.94,5.21-2,7.54.58A4.57,4.57,0,0,1,546.89,480.25Z" transform="translate(-360.34 -197.59)"/><path class="cls-27" d="M628,333.83l-7.63.75C622.25,330.77,625.52,330.45,628,333.83Z" transform="translate(-360.34 -197.59)"/><path class="cls-25" d="M478.72,417.94c-.67,1.06-1.35,2.13-2,3.19Z" transform="translate(-360.34 -197.59)"/></svg>