<?xml version="1.0" encoding="utf-8"?>
<!-- Generator: Adobe Illustrator 22.1.0, SVG Export Plug-In . SVG Version: 6.00 Build 0)  -->
<svg version="1.1" id="Layer_1" xmlns="http://www.w3.org/2000/svg" xmlns:xlink="http://www.w3.org/1999/xlink" x="0px" y="0px"
	 viewBox="0 0 1366 768" style="enable-background:new 0 0 1366 768;" xml:space="preserve">
<style type="text/css">
	.st0{fill:#FD0000;}
	.st1{fill:#FDFDFC;}
</style>
<g>
	<g>
		<path class="st0" d="M682.8,19.5c201.3-0.1,364.7,163.1,364.7,364.3c0,201.5-163.2,364.8-364.7,364.7
			c-201.2-0.1-364.3-163.4-364.3-364.7C318.6,182.8,481.8,19.6,682.8,19.5z M880.3,536.9c-49.5-49.5-99-98.9-148.8-148.7
			c49.4-49.3,98.8-98.7,148-147.9c-15.6-15.6-31.2-31.2-47.2-47.2c-49.2,49.3-98.6,98.7-148.3,148.5
			C634.4,292.1,585,242.7,536.3,194c-15.8,15.7-31.4,31.2-47.7,47.4c49.1,49,98.5,98.4,148.2,148c-49.3,49.2-98.7,98.6-147.5,147.4
			c15.7,15.7,31.3,31.3,47.3,47.4c49-49,98.4-98.4,148.2-148.3c49.4,49.4,98.8,98.9,148.2,148.3C848.5,568.7,864,553.2,880.3,536.9z
			"/>
		<path class="st1" d="M880.3,536.9c-16.3,16.3-31.7,31.8-47.2,47.2c-49.4-49.4-98.8-98.9-148.2-148.3
			c-49.9,49.9-99.2,99.3-148.2,148.3c-16-16-31.6-31.6-47.3-47.4c48.8-48.8,98.2-98.1,147.5-147.4c-49.7-49.7-99.1-99-148.2-148
			c16.2-16.2,31.9-31.7,47.7-47.4c48.7,48.8,98.1,98.1,147.6,147.7c49.7-49.8,99.1-99.3,148.3-148.5c16,16,31.6,31.6,47.2,47.2
			c-49.2,49.2-98.6,98.5-148,147.9C781.3,438,830.7,487.4,880.3,536.9z"/>
	</g>
</g>
</svg>
